<svg width="61" height="61" viewBox="0 0 61 61" fill="none" xmlns="http://www.w3.org/2000/svg">
<g clip-path="url(#clip0_10_2)">
<path d="M57.9415 16.0268V0.542969H46.3286V16.0268H45.9841L41.308 5.73781L35.0002 0.692001L33.7131 8.41265L37.0973 16.0268H33.748V21.8333H35.6834V24.7365H5.68344C3.01537 24.7365 0.844727 26.9072 0.844727 29.5752V49.8978C0.844727 52.5659 3.01537 54.7365 5.68344 54.7365H16.3286V58.6075H12.4576V60.543H33.748V58.6075H29.877V54.7365H40.5221C43.1902 54.7365 45.3609 52.5659 45.3609 49.8978V45.0591H56.006C57.6067 45.0591 58.9092 43.7565 58.9092 42.1559V21.8333H60.8447V16.0268H57.9415ZM48.2641 2.47845H56.006V4.41394H54.0705V6.34942H56.006V8.2849H52.135V10.2204H56.006V12.1559H54.0705V14.0914H56.006V16.0268H48.2641V2.47845ZM36.3667 4.26394L39.3821 6.67748L35.7638 7.88329L36.3667 4.26394ZM36.4073 9.70845L40.3828 8.38361L43.8579 16.0268H39.2157L36.4073 9.70845ZM27.9415 58.6075H18.2641V54.7365H27.9415V58.6075ZM40.5221 52.801H5.68344C4.08279 52.801 2.78021 51.4985 2.78021 49.8978H43.4254C43.4254 51.4985 42.1228 52.801 40.5221 52.801ZM43.4254 47.9623H2.78021V29.5752C2.78021 27.9746 4.08279 26.672 5.68344 26.672H35.6834V42.1559C35.6834 43.7565 36.986 45.0591 38.5867 45.0591H43.4254V47.9623ZM56.9738 38.2849H55.0383V40.2204H56.9738V42.1559C56.9738 42.6901 56.5402 43.1236 56.006 43.1236H38.5867C38.0525 43.1236 37.6189 42.6901 37.6189 42.1559V40.2204H53.1028V38.2849H37.6189V21.8333H56.9738V38.2849ZM58.9092 19.8978H35.6834V17.9623H58.9092V19.8978Z" fill="white"/>
<path d="M18.2643 21.8333C24.1337 21.8333 28.9095 17.0575 28.9095 11.1881C28.9095 5.31878 24.1337 0.542969 18.2643 0.542969C12.3949 0.542969 7.61914 5.31878 7.61914 11.1881C7.61914 17.0575 12.3949 21.8333 18.2643 21.8333ZM18.2643 2.47845C23.0672 2.47845 26.974 6.38523 26.974 11.1881C26.974 15.991 23.0672 19.8978 18.2643 19.8978C13.4614 19.8978 9.55462 15.991 9.55462 11.1881C9.55462 6.38523 13.4614 2.47845 18.2643 2.47845Z" fill="white"/>
<path d="M19.2318 14.0915H17.2963C16.7621 14.0915 16.3286 13.6579 16.3286 13.1237H14.3931C14.3931 14.7244 15.6956 16.027 17.2963 16.027V17.9624H19.2318V16.027C20.8324 16.027 22.135 14.7244 22.135 13.1237C22.135 11.5231 20.8324 10.2205 19.2318 10.2205H17.2963C16.7621 10.2205 16.3286 9.78697 16.3286 9.25277C16.3286 8.71858 16.7621 8.28503 17.2963 8.28503H19.2318C19.766 8.28503 20.1995 8.71858 20.1995 9.25277H22.135C22.135 7.65213 20.8324 6.34955 19.2318 6.34955V4.41406H17.2963V6.34955C15.6956 6.34955 14.3931 7.65213 14.3931 9.25277C14.3931 10.8534 15.6956 12.156 17.2963 12.156H19.2318C19.766 12.156 20.1995 12.5895 20.1995 13.1237C20.1995 13.6579 19.766 14.0915 19.2318 14.0915Z" fill="white"/>
<path d="M4.71582 46.0268H33.7481V28.6074H4.71582V46.0268ZM6.6513 30.5429H31.8126V44.0913H6.6513V30.5429Z" fill="white"/>
<path d="M25.0139 37.3172C24.7681 34.6085 22.4871 32.4785 19.7155 32.4785C17.7161 32.4785 15.9035 33.6234 15.0026 35.3817H12.9074L8.74902 41.6188L10.3593 42.6921L13.9429 37.3172H17.7461L21.3297 42.693L22.94 41.6198L21.3626 39.2527H25.5219L28.1348 42.7366L29.6832 41.5763L26.4897 37.3172H25.0139ZM20.0716 37.3172L18.7816 35.3817H17.3658C17.9832 34.7759 18.8203 34.414 19.7155 34.414C21.4168 34.414 22.8161 35.6798 23.0532 37.3172H20.0716Z" fill="white"/>
</g>
<defs>
<clipPath id="clip0_10_2">
<rect width="60" height="60" fill="white" transform="translate(0.844727 0.542969)"/>
</clipPath>
</defs>
</svg>
