<svg width="64" height="64" viewBox="0 0 64 64" fill="none" xmlns="http://www.w3.org/2000/svg">
<path d="M32.0002 61.3337C17.1815 58.0403 5.3335 44.059 5.3335 29.3337V13.3337L32.0002 2.66699L58.6668 13.3337V29.3337C58.6668 44.0643 46.8188 58.0403 32.0002 61.3337ZM10.6668 16.0003V29.3337C10.8192 35.4993 12.9878 41.4452 16.8406 46.2613C20.6935 51.0773 26.0183 54.4982 32.0002 56.0003C37.982 54.4982 43.3068 51.0773 47.1597 46.2613C51.0125 41.4452 53.1811 35.4993 53.3335 29.3337V16.0003L32.0002 8.00033L10.6668 16.0003Z" fill="white"/>
<path d="M32.0002 29.3333C35.6821 29.3333 38.6668 26.3486 38.6668 22.6667C38.6668 18.9848 35.6821 16 32.0002 16C28.3183 16 25.3335 18.9848 25.3335 22.6667C25.3335 26.3486 28.3183 29.3333 32.0002 29.3333Z" fill="white"/>
<path d="M18.6665 40C19.9809 42.3952 21.9081 44.3982 24.2509 45.8038C26.5937 47.2095 29.2679 47.9674 31.9998 48C34.7318 47.9674 37.406 47.2095 39.7488 45.8038C42.0916 44.3982 44.0188 42.3952 45.3332 40C45.2665 34.944 36.4212 32 31.9998 32C27.5545 32 18.7332 34.944 18.6665 40Z" fill="white"/>
</svg>
