<svg width="24" height="22" viewBox="0 0 24 22" fill="none" xmlns="http://www.w3.org/2000/svg">
<path d="M7.88 11.04C7.88 11.34 7.84333 11.63 7.77 11.91C7.70333 12.1833 7.59333 12.43 7.44 12.65C7.29333 12.87 7.1 13.0433 6.86 13.17C6.61333 13.3033 6.32333 13.37 5.99 13.37C5.65667 13.37 5.37333 13.3033 5.14 13.17C4.90667 13.03 4.71667 12.8467 4.57 12.62C4.42333 12.4 4.31333 12.15 4.24 11.87C4.17333 11.59 4.14 11.3033 4.14 11.01C4.14 10.7167 4.17333 10.4267 4.24 10.14C4.30667 9.85333 4.42 9.6 4.58 9.38C4.72667 9.15333 4.92333 8.97333 5.17 8.84C5.41 8.70667 5.7 8.64 6.04 8.64C6.38 8.64 6.66667 8.70667 6.9 8.84C7.13333 8.98 7.32333 9.16333 7.47 9.39C7.61667 9.61667 7.72 9.87333 7.78 10.16C7.84667 10.4467 7.88 10.74 7.88 11.04ZM24 11V20.38C24 20.6867 23.89 20.9533 23.67 21.18C23.45 21.3933 23.1833 21.5 22.87 21.5H7.13C6.82333 21.5 6.55667 21.39 6.33 21.17C6.11667 20.95 6.01 20.6833 6.01 20.37V17H1C0.726667 17 0.493333 16.9 0.3 16.7C0.1 16.5067 0 16.2733 0 16V6C0 5.72667 0.1 5.49333 0.3 5.3C0.486667 5.1 0.72 5 1 5H7.5V1.55C7.5 1.25667 7.6 1.00667 7.8 0.8C8 0.6 8.25 0.5 8.55 0.5H21.45C21.7433 0.5 21.9933 0.6 22.2 0.8C22.4 1 22.5 1.25 22.5 1.55V9.85L23.74 10.57H23.75C23.8167 10.6167 23.8767 10.6767 23.93 10.75C23.9767 10.83 24 10.9133 24 11ZM18 2.75V5.75H21V2.75H18ZM18 7.25V10.25H21V7.25H18ZM18 11.75V13.58L21.05 11.75H18ZM12.75 2.75V5.75H16.5V2.75H12.75ZM12.75 7.25V10.25H16.5V7.25H12.75ZM12.75 11.75V13.78L15.16 15.28L16.5 14.48V11.75H12.75ZM9 2.75V5H11L11.13 5.01L11.25 5.05V2.75H9ZM5.98 14.98C6.58 14.98 7.11333 14.88 7.58 14.68C8.04667 14.4667 8.44333 14.18 8.77 13.82C9.09 13.4533 9.33333 13.0267 9.5 12.54C9.66667 12.0467 9.75 11.51 9.75 10.93C9.75 10.3767 9.66667 9.86 9.5 9.38C9.34 8.90667 9.10333 8.49333 8.79 8.14C8.47667 7.78667 8.09333 7.51 7.64 7.31C7.18667 7.11 6.67 7.01 6.09 7.01C5.47667 7.01 4.93 7.11 4.45 7.31C3.97667 7.51 3.57667 7.79333 3.25 8.16C2.91667 8.52 2.66667 8.95333 2.5 9.46C2.33333 9.95333 2.25 10.4967 2.25 11.09C2.25 11.6567 2.33667 12.1767 2.51 12.65C2.68333 13.13 2.93 13.54 3.25 13.88C3.57 14.2267 3.96 14.4967 4.42 14.69C4.88 14.89 5.4 14.99 5.98 14.99V14.98ZM7.5 20H19.89L12 15.08V16C12 16.2733 11.9 16.5067 11.7 16.7C11.5067 16.9 11.2733 17 11 17H7.5V20ZM22.5 19.87V12.63L16.6 16.17L22.5 19.87Z" fill="white"/>
</svg>
